<svg version="1.1" id="Capa_1" xmlns="http://www.w3.org/2000/svg" xmlns:xlink="http://www.w3.org/1999/xlink" x="0px" y="0px"
	 viewBox="0 0 21.2 32" style="enable-background:new 0 0 18 10;" xml:space="preserve">
<style type="text/css">
	.st0{fill:url(#MD_LOGO_2_);}
</style>
<linearGradient id="MD_LOGO_2_" gradientUnits="userSpaceOnUse" x1="-3.7802" y1="3.6947" x2="18.9762" y2="28.098">
	<stop  offset="0" style="stop-color:#41D1FF"/>
	<stop  offset="1" style="stop-color:#BD34FE"/>
</linearGradient>
<path id="MD_LOGO_1_" class="st0" d="M3.3,14.9C3.4,15,3.5,15,3.5,15c2.2,1.3,3.6,3.7,3.6,6.3H14c0-2.6,1.4-5,3.6-6.3
	c0.1,0,0.1-0.1,0.2-0.1v6.4c0,2.6-1.4,5-3.6,6.3c-1.1,0.6-2.3,1-3.6,1H3.3V14.9 M21.3,10.7c-1.9,0-3.8,0.5-5.3,1.4
	c-3.2,1.8-5.3,5.3-5.3,9.2c0-3.9-2.1-7.4-5.3-9.2c-1.6-0.9-3.4-1.4-5.3-1.4v20.9c0,0.2,0.2,0.4,0.4,0.4h10.2c1.9,0,3.8-0.5,5.3-1.4
	c3.2-1.8,5.3-5.3,5.3-9.2V10.7L21.3,10.7z M3.3,3.4h7.3c3.7,0,6.8,2.8,7.2,6.5c1.1-0.3,2.2-0.5,3.4-0.5C20.5,4.1,16,0,10.6,0H0.3
	C0.1,0-0.1,0.2-0.1,0.4v9c1.2,0,2.3,0.2,3.4,0.5V3.4z"/>
</svg>
